<svg xmlns="http://www.w3.org/2000/svg" width="361" height="210"><g fill="none" fill-rule="evenodd"><path fill="#15284B" d="M.365 210h360V0h-360z"/><g fill="#FFF"><path d="M183.255 139.786h-5.286a1.322 1.322 0 110-2.644h5.287a1.322 1.322 0 010 2.644m-19.827-71.379h34.366c2.29 0 3.966 1.851 3.966 2.644v2.643h-42.3v-1.32a3.966 3.966 0 013.966-3.967m-5.287 17.184c.73 0 1.322-.592 1.322-1.322v-7.93h42.299v10.574a1.321 1.321 0 002.643.001V71.05c0-2.379-3.05-5.288-6.609-5.288H163.43a6.618 6.618 0 00-6.61 6.61V84.27c0 .73.591 1.322 1.322 1.322"/><path d="M197.796 142.43h-34.368a3.965 3.965 0 01-3.965-3.965v-3.966h42.298v3.966a3.965 3.965 0 01-3.965 3.965m5.287-18.506c-.73 0-1.322.592-1.322 1.322v6.61h-42.298v-5.287a1.322 1.322 0 10-2.644 0v11.896a6.617 6.617 0 006.61 6.609h34.366a6.62 6.62 0 006.61-6.61v-13.217c0-.73-.593-1.322-1.323-1.322m-27.757-51.552h2.644a1.321 1.321 0 000-2.644h-2.644a1.322 1.322 0 000 2.644m7.93 0h2.645a1.322 1.322 0 000-2.644h-2.645a1.322 1.322 0 000 2.644"/><path d="M213.883 112.027h-26.5l-2.74-18.505h32.717l-3.477 18.505zm-17.408 6.61a1.322 1.322 0 11.001 2.645 1.322 1.322 0 01-.001-2.646zm13.218 0a1.322 1.322 0 11.001 2.645 1.322 1.322 0 01-.001-2.646zm10.27-27.282a1.32 1.32 0 00-1.017-.477H184.25l-.674-4.545a3.99 3.99 0 00-3.923-3.386h-5.65v2.643h5.65c.656 0 1.213.481 1.309 1.13l4.618 31.175a3.989 3.989 0 003.923 3.385h3.249a3.943 3.943 0 007.445 0h5.774a3.965 3.965 0 100-2.644h-5.774a3.942 3.942 0 00-7.445 0h-3.25a1.328 1.328 0 01-1.307-1.129l-.421-2.835h27.206c.636 0 1.18-.454 1.299-1.079l3.965-21.149a1.326 1.326 0 00-.28-1.089zm-76.362 14.064c0-8.03 6.51-14.541 14.54-14.541s14.54 6.51 14.54 14.54-6.51 14.54-14.54 14.54c-8.026-.01-14.531-6.513-14.54-14.54m31.724 0c0-9.49-7.693-17.184-17.184-17.184-9.49 0-17.184 7.694-17.184 17.185 0 9.49 7.694 17.184 17.184 17.184 9.486-.011 17.173-7.7 17.184-17.184"/><path d="M159.463 115.993v-1.51a5.275 5.275 0 00-1.322-10.385 2.644 2.644 0 112.644-2.645 1.322 1.322 0 002.644 0 5.29 5.29 0 00-3.966-5.1v-1.509a1.322 1.322 0 00-2.644 0v1.51a5.275 5.275 0 001.322 10.386 2.644 2.644 0 11-2.643 2.644 1.322 1.322 0 00-2.644 0 5.287 5.287 0 003.965 5.1v1.51a1.321 1.321 0 102.644-.001m29.08-18.506h18.506a1.322 1.322 0 100-2.644h-18.506a1.322 1.322 0 000 2.644m22.472 0h2.643a1.32 1.32 0 00.001-2.644h-2.645a1.322 1.322 0 000 2.644"/></g></g></svg>