<svg xmlns="http://www.w3.org/2000/svg" width="360" height="210"><g fill="none" fill-rule="evenodd"><path fill="#FDB515" d="M0 210h360V0H0z"/><g fill="#FFF"><path d="M189.876 134.301h-7.35a1.894 1.894 0 00.001 3.788h7.349c1.134 0 2.057.922 2.057 2.057a2.059 2.059 0 01-2.057 2.056h-19.783a9.949 9.949 0 01-7.672-3.597l-4.731-5.687a13.725 13.725 0 00-10.186-4.95v-11.19h6.974a13.14 13.14 0 019.169 3.703l10.21 9.856c.722.697.756 1.863.075 2.601-.693.752-1.87.8-2.624.11l-8.018-7.348a1.893 1.893 0 10-2.559 2.792l8.017 7.35a5.628 5.628 0 003.814 1.48c1.523 0 3.042-.61 4.153-1.814 2.066-2.238 1.963-5.779-.228-7.894l-10.211-9.857a16.909 16.909 0 00-11.8-4.766h-7.341a4.704 4.704 0 00-4.326-2.874h-8.915c-1.046 0-1.893.85-1.893 1.895v13.85a1.893 1.893 0 103.787 0v-11.957h7.022c.5 0 .906.408.906.907v15.18c0 .5-.406.907-.906.907h-1.968a1.893 1.893 0 000 3.788h1.968a4.7 4.7 0 004.353-2.942 9.952 9.952 0 017.615 3.596l4.73 5.687a13.732 13.732 0 0010.585 4.962h19.783a5.851 5.851 0 005.845-5.844 5.852 5.852 0 00-5.845-5.845m37.21-52.806a1.894 1.894 0 00-1.894 1.894v12.695h-7.022a.906.906 0 01-.906-.906v-15.18c0-.5.406-.907.906-.907h1.829a1.895 1.895 0 000-3.788h-1.83a4.699 4.699 0 00-4.352 2.942 9.953 9.953 0 01-7.615-3.597l-4.732-5.685A13.724 13.724 0 00190.887 64h-19.783a5.85 5.85 0 00-5.845 5.844 5.851 5.851 0 005.845 5.844h8.089a1.893 1.893 0 100-3.788h-8.09c-1.133 0-2.056-.922-2.056-2.056s.923-2.057 2.057-2.057h19.783a9.953 9.953 0 017.672 3.598l4.73 5.686a13.728 13.728 0 0010.187 4.951v11.19h-6.973c-3.44 0-6.695-1.317-9.17-3.704l-10.21-9.857a1.87 1.87 0 01-.075-2.6c.693-.752 1.87-.8 2.624-.11l8.017 7.348a1.894 1.894 0 102.56-2.792l-8.017-7.348a5.66 5.66 0 00-7.968.332c-2.065 2.24-1.963 5.781.228 7.896l10.21 9.855A16.914 16.914 0 00206.503 97h7.342a4.703 4.703 0 004.327 2.873h8.915a1.894 1.894 0 001.894-1.895V83.39a1.894 1.894 0 00-1.894-1.894m-36.44 45.971a1.895 1.895 0 001.512 3.473l.041-.019a1.898 1.898 0 00.95-2.507 1.891 1.891 0 00-2.503-.947m4.559-2.64a1.892 1.892 0 00-.409 2.645 1.89 1.89 0 002.647.412l.023-.019c.84-.62 1.01-1.799.39-2.64a1.901 1.901 0 00-2.65-.398"/><path d="M185.617 129.079a1.894 1.894 0 00.725 3.717l.055-.012a1.89 1.89 0 001.458-2.244 1.896 1.896 0 00-2.238-1.462m15.14-6.375l-.212-.19.228.206-.016-.016zm1.057-1.597a1.893 1.893 0 00-2.674.139l-.04.046a1.89 1.89 0 001.431 3.13 1.89 1.89 0 001.423-.642 1.894 1.894 0 00-.14-2.673zm4.821-10.263a1.9 1.9 0 00-2.364 1.27 1.894 1.894 0 003.62 1.112l.008-.026a1.89 1.89 0 00-1.264-2.356m2.412-9.848a1.893 1.893 0 00-3.71.765 1.895 1.895 0 002.193 1.506 1.893 1.893 0 001.517-2.271m-1.724 4.182a1.897 1.897 0 00-2.053 1.721l-.005.073a1.893 1.893 0 003.779.25 1.894 1.894 0 00-1.72-2.044m-2.544 11.055a1.892 1.892 0 00-2.58.714l-.026.048a1.9 1.9 0 00.755 2.576c.29.156.602.23.909.23.668 0 1.314-.353 1.656-.984l-1.647-.937 1.648.935a1.896 1.896 0 00-.715-2.582m-36.047-33.326a1.894 1.894 0 10-.842-3.59l-.018.009a1.885 1.885 0 00-.838 2.536 1.894 1.894 0 001.698 1.045m5.31-1.975c.156 0 .315-.02.473-.061a1.894 1.894 0 10-.892-3.68l-.045.011a1.898 1.898 0 00-1.366 2.307c.22.855.987 1.423 1.83 1.423m-10.107 5.055c.413 0 .83-.135 1.18-.412l.024-.021a1.893 1.893 0 00-2.38-2.947l1.175 1.486-1.18-1.481a1.891 1.891 0 00-.302 2.66c.374.47.926.715 1.483.715m-9.561 14.067a1.896 1.896 0 002.285-1.382 1.894 1.894 0 00-3.66-.972l-.019.07a1.892 1.892 0 001.394 2.284m-.424 5.683h.058a1.894 1.894 0 001.891-1.825 1.895 1.895 0 00-3.782-.197l-.003.075a1.893 1.893 0 001.836 1.947m2.033-11.151a1.895 1.895 0 002.531-.854 1.893 1.893 0 00-3.364-1.741l-.03.062a1.892 1.892 0 00.863 2.533m2.748-4.994a1.891 1.891 0 002.655-.3 1.894 1.894 0 00-2.925-2.407l-.04.048c-.648.82-.51 2.01.31 2.66m-4.672 18.045a1.894 1.894 0 00-1.53 2.198l.004.019a1.885 1.885 0 002.196 1.521 1.902 1.902 0 001.529-2.208 1.894 1.894 0 00-2.198-1.53m20.178-9.059a4.994 4.994 0 014.627 3.093 1.894 1.894 0 003.499 0 4.996 4.996 0 014.628-3.093 5.013 5.013 0 015.007 5.008 4.969 4.969 0 01-1.403 3.474l-9.984 7.954-9.594-7.595a4.995 4.995 0 01-1.787-3.833 5.013 5.013 0 015.007-5.008m-5.629 11.765l.037.03 10.793 8.545a1.889 1.889 0 002.356-.003l11.25-8.962c.055-.044.108-.09.157-.14a8.732 8.732 0 002.584-6.226c0-4.85-3.945-8.795-8.794-8.795a8.772 8.772 0 00-6.377 2.732 8.77 8.77 0 00-6.377-2.733c-4.85 0-8.795 3.946-8.795 8.796a8.777 8.777 0 003.166 6.757m58.475-35.034a1.888 1.888 0 110 3.776 1.888 1.888 0 010-3.776"/></g></g></svg>