<?xml version="1.0" encoding="UTF-8"?>
<svg width="389px" height="50px" viewBox="0 0 389 50" version="1.1" xmlns="http://www.w3.org/2000/svg" xmlns:xlink="http://www.w3.org/1999/xlink">
    <!-- Generator: Sketch 61.2 (89653) - https://sketch.com -->
    <title>logo_berkeleyexecedhaas</title>
    <desc>Created with Sketch.</desc>
    <g id="WL-pages" stroke="none" stroke-width="1" fill="none" fill-rule="evenodd">
        <g id="school-logos" transform="translate(-502.000000, -414.000000)" fill-rule="nonzero">
            <g id="logo_berkeleyexecedhaas" transform="translate(502.000000, 414.000000)">
                <rect id="Rectangle" fill="#BABABA" x="204.142857" y="0" width="1" height="50"></rect>
                <g id="Group_419" transform="translate(213.857143, 7.442857)">
                    <path d="M134.285714,13.2857143 C134.285714,11.7142857 135.142857,10.1428571 136.428571,9.28571429 C137.714286,8.42857143 139.142857,8 140.571429,8 C144.714286,8 146.285714,10.1428571 146.285714,13.1428571 L146.285714,23.8571429 C146.285714,24.2857143 146.428571,24.7142857 146.571429,25.2857143 L142.571429,25.2857143 C142.428571,24.8571429 142.428571,24.2857143 142.285714,23.5714286 C141,24.8571429 139.428571,25.5714286 137.571429,25.5714286 C135.142857,25.5714286 133.714286,24.2857143 133.714286,21.5714286 C133.714286,17.7142857 137.428571,16 142.285714,14.5714286 L142.285714,13.2857143 C142.428571,12.2857143 141.714286,11.4285714 140.714286,11.2857143 C140.571429,11.2857143 140.428571,11.2857143 140.285714,11.2857143 C139.142857,11.2857143 138.142857,12.1428571 138.142857,13.2857143 L138.142857,13.2857143 L134.285714,13.2857143 L134.285714,13.2857143 Z M142.428571,17 C140.142857,17.8571429 137.714286,19.1428571 137.714286,20.8571429 C137.571429,21.7142857 138.285714,22.5714286 139.142857,22.5714286 C139.285714,22.5714286 139.285714,22.5714286 139.428571,22.5714286 C140.571429,22.5714286 141.428571,22 142.428571,21 L142.428571,17 L142.428571,17 Z" id="Path_1273" fill="#15284B"></path>
                    <path d="M149.142857,13.2857143 C149.142857,11.7142857 150,10.1428571 151.285714,9.28571429 C152.571429,8.42857143 154,8 155.428571,8 C159.571429,8 161.142857,10.1428571 161.142857,13.1428571 L161.142857,23.8571429 C161.142857,24.2857143 161.285714,24.7142857 161.428571,25.2857143 L157.571429,25.2857143 C157.428571,24.8571429 157.428571,24.2857143 157.285714,23.5714286 C156,24.8571429 154.428571,25.5714286 152.571429,25.5714286 C150.142857,25.5714286 148.714286,24.2857143 148.714286,21.5714286 C148.714286,17.7142857 152.428571,16 157.285714,14.5714286 L157.285714,13.2857143 C157.428571,12.2857143 156.714286,11.4285714 155.714286,11.2857143 C155.571429,11.2857143 155.428571,11.2857143 155.285714,11.2857143 C154.142857,11.2857143 153.142857,12.1428571 153.142857,13.2857143 C153.142857,13.2857143 153.142857,13.2857143 153.142857,13.2857143 L153.142857,13.2857143 L149.142857,13.2857143 Z M157.285714,17 C155,17.8571429 152.571429,19.1428571 152.571429,20.8571429 C152.428571,21.7142857 153.142857,22.5714286 154,22.5714286 C154.142857,22.5714286 154.142857,22.5714286 154.285714,22.5714286 C155.428571,22.5714286 156.285714,22 157.285714,21 L157.285714,17 L157.285714,17 Z" id="Path_1274" fill="#15284B"></path>
                    <path d="M171.571429,13.5714286 C171,12 170,11.2857143 168.857143,11.2857143 C168,11.2857143 167.285714,11.8571429 167.285714,12.7142857 C167.285714,12.7142857 167.285714,12.7142857 167.285714,12.7142857 C167.285714,12.7142857 167.285714,12.7142857 167.285714,12.8571429 C167.285714,15.4285714 175,15.5714286 175,20.5714286 C175,24 172.571429,25.7142857 169.428571,25.7142857 C167,25.7142857 164.857143,25.1428571 163,20.8571429 L166.571429,19.8571429 C166.857143,21.4285714 167.857143,22.4285714 169.428571,22.4285714 C170.571429,22.4285714 171.285714,21.8571429 171.285714,20.8571429 C171.285714,17.5714286 163.571429,18.4285714 163.571429,12.7142857 C163.571429,9.57142857 166.142857,8 169,8 C171.714286,8 174.142857,9.71428571 174.857143,12.2857143 L171.571429,13.5714286 Z" id="Path_1275" fill="#15284B"></path>
                    <polygon id="Path_1276" fill="#15284B" points="127 0.142857143 127 10.4285714 120 10.4285714 120 0.142857143 115.714286 0.142857143 115.714286 25.2857143 120 25.2857143 120 14.1428571 127 14.1428571 127 25.2857143 131.285714 25.2857143 131.285714 0.142857143"></polygon>
                    <path d="M10.8571429,25.7142857 C9.14285714,25.7142857 7.42857143,25.2857143 5.57142857,25.2857143 C3.71428571,25.2857143 2.85714286,25.4285714 1.57142857,25.4285714 C1.14285714,25.4285714 0.857142857,25.4285714 0.857142857,25 C0.857142857,24.5714286 1.14285714,24.5714286 2,24.5714286 C3.85714286,24.5714286 3.85714286,24.4285714 3.85714286,23.8571429 L3.85714286,4.85714286 C3.85714286,1.57142857 3.14285714,1.28571429 2,1.28571429 C0.142857143,1.28571429 0,1.28571429 0,0.714285714 C0,0.428571429 0.142857143,0.428571429 0.857142857,0.428571429 C2.14285714,0.428571429 3.42857143,0.428571429 4.85714286,0.428571429 C5.71428571,0.428571429 7.71428571,0.142857143 11.4285714,0.142857143 C16.8571429,0.142857143 19.1428571,2.85714286 19.1428571,5.85714286 C19.1428571,8.85714286 17.4285714,10.2857143 16,11.1428571 C15.4285714,11.4285714 14.8571429,11.8571429 14.2857143,12.2857143 C14.2857143,12.4285714 15,12.5714286 15.8571429,13 C17.8571429,14 20.2857143,15.4285714 20.2857143,19 C20.5714286,23.5714286 16.7142857,25.7142857 10.8571429,25.7142857 M10.4285714,1.14285714 C7.71428571,1.14285714 7.57142857,1.57142857 7.57142857,2.28571429 L7.57142857,11.2857143 C7.57142857,12 8.14285714,11.8571429 9.14285714,11.8571429 C10.5714286,11.8571429 12,12 13.4285714,12.1428571 C14.5714286,11.2857143 16,10.4285714 16,7.14285714 C15.8571429,5.14285714 14.1428571,1.14285714 10.4285714,1.14285714 M9,12.7142857 C7.85714286,12.7142857 7.42857143,12.8571429 7.42857143,13.8571429 L7.42857143,21.2857143 C7.42857143,21.7142857 7.57142857,24 7.85714286,24.4285714 C8.28571429,24.8571429 9.57142857,25.1428571 11,25.1428571 C14.1428571,25.1428571 16.4285714,23 16.4285714,19.4285714 C16.5714286,15.5714286 13.4285714,12.5714286 9,12.7142857" id="Path_1277" fill="#FDB614"></path>
                    <path d="M33.7142857,15.4285714 C30.8571429,16 28,16.4285714 25.1428571,16.7142857 C24.5714286,16.7142857 24.4285714,17 24.4285714,17.7142857 C24.4285714,22.7142857 28.2857143,24 31,24 C32.2857143,24 33.7142857,23.7142857 34.8571429,23.1428571 C35,23.1428571 35.1428571,23.2857143 35.1428571,23.4285714 C33.4285714,24.8571429 31.4285714,25.7142857 29.1428571,25.8571429 C26.1428571,25.8571429 21.8571429,24.4285714 21.8571429,18.4285714 C21.8571429,13.4285714 25.2857143,10.2857143 28.5714286,10.2857143 C30.7142857,10.4285714 32.5714286,11.4285714 34,13 C34.5714286,13.5714286 34.8571429,14.1428571 35.1428571,14.8571429 C35.1428571,15.1428571 34.7142857,15.2857143 33.7142857,15.4285714 M28.1428571,11.1428571 C25.4285714,11.1428571 24.5714286,15.2857143 24.5714286,15.7142857 C24.5714286,15.8571429 24.5714286,16 25,16 C26.8571429,16 28.8571429,15.5714286 31.5714286,15.1428571 C32,15 32,15 32,14.7142857 C31.8571429,13.8571429 29.7142857,11.1428571 28.1428571,11.1428571" id="Path_1278" fill="#FDB614"></path>
                    <path d="M46.8571429,14.5714286 C46.2857143,14.5714286 45.8571429,13 44.1428571,13 C42,13 41.2857143,13.8571429 41.2857143,15.4285714 L41.2857143,22.8571429 C41.2857143,24.5714286 41.4285714,24.5714286 44,24.5714286 C45,24.5714286 45,24.7142857 45,25 C45,25.2857143 45,25.4285714 44,25.4285714 C43.4285714,25.4285714 41.1428571,25.2857143 40,25.2857143 C38.8571429,25.2857143 37.5714286,25.4285714 37,25.4285714 C36.1428571,25.4285714 36.1428571,25.4285714 36.1428571,25 C36.1428571,24.5714286 36.1428571,24.5714286 37,24.5714286 C38.5714286,24.5714286 38.5714286,24.5714286 38.5714286,24 L38.5714286,14.1428571 C38.5714286,11.7142857 38.7142857,11.5714286 36.5714286,11.5714286 C35.8571429,11.5714286 35.8571429,11.5714286 35.8571429,11.1428571 C35.8571429,10.7142857 35.8571429,10.5714286 36.4285714,10.5714286 C37.7142857,10.5714286 38.2857143,10.7142857 39,10.7142857 C39.5714286,10.7142857 40.2857143,10.5714286 40.8571429,10.5714286 C41,10.5714286 41.1428571,10.7142857 41.1428571,10.8571429 C41.1428571,10.8571429 41.1428571,10.8571429 41.1428571,10.8571429 C41.1428571,11 41,11.8571429 41,12 C41,12.2857143 41,12.5714286 41.1428571,12.5714286 C41.7142857,12.5714286 43.4285714,10.7142857 45,10.7142857 C45.7142857,10.7142857 47.2857143,11.4285714 47.2857143,12.4285714 C47.4285714,13.2857143 47.2857143,13.8571429 46.8571429,14.5714286" id="Path_1279" fill="#FDB614"></path>
                    <path d="M63.8571429,25.5714286 L60.5714286,25.5714286 C59.8571429,25.5714286 59.5714286,24.7142857 58.1428571,23 C56.5714286,21.2857143 55.1428571,19 54.8571429,19 C54.4285714,19.1428571 54,19.4285714 53.5714286,19.7142857 C53,20.1428571 52.4285714,20.2857143 52.4285714,20.7142857 L52.4285714,23 C52.4285714,24.7142857 52.2857143,24.7142857 54.5714286,24.7142857 C55.4285714,24.7142857 55.5714286,24.8571429 55.5714286,25.1428571 C55.5714286,25.4285714 55.4285714,25.5714286 54.5714286,25.5714286 C54,25.5714286 52.4285714,25.4285714 51.2857143,25.4285714 C50.1428571,25.4285714 48.7142857,25.5714286 48.2857143,25.5714286 C47.4285714,25.5714286 47.2857143,25.5714286 47.2857143,25.1428571 C47.2857143,24.7142857 47.4285714,24.7142857 48.2857143,24.7142857 C49.5714286,24.7142857 49.8571429,24.7142857 49.8571429,24.1428571 C49.8571429,23.1428571 50,12.4285714 50,4.85714286 C50,2.28571429 49.7142857,2 48.7142857,2 C47.1428571,2 47.1428571,1.85714286 47.1428571,1.57142857 C47.1428571,1.28571429 47.2857143,1 47.5714286,1 C49.2857143,1 51,0.714285714 52.5714286,0.285714286 C52.7142857,0.285714286 52.8571429,0.428571429 52.8571429,0.571428571 C52.8571429,1 52.7142857,2.57142857 52.7142857,3.71428571 C52.7142857,9.14285714 52.4285714,13.1428571 52.4285714,19 C52.4285714,19.1428571 52.4285714,19.2857143 52.5714286,19.2857143 C53.4285714,19.2857143 57.1428571,16 58.4285714,14.8571429 C59.8571429,13.5714286 60.1428571,12.8571429 60.1428571,12.1428571 C60.1428571,11.5714286 60,11.4285714 58.4285714,11.4285714 C57.8571429,11.4285714 57.7142857,11.2857143 57.7142857,11 C57.7142857,10.7142857 57.8571429,10.5714286 58.4285714,10.5714286 C59,10.5714286 59.4285714,10.7142857 60,10.7142857 C60.4285714,10.7142857 62.5714286,10.5714286 63,10.5714286 C63.2857143,10.5714286 63.4285714,10.5714286 63.4285714,10.7142857 C63.4285714,11 62.1428571,12.5714286 61.1428571,13.7142857 C59.2857143,15.4285714 57.1428571,17 57.1428571,17.2857143 C57.1428571,17.5714286 57.8571429,18.2857143 60.2857143,21.2857143 C61.5714286,22.8571429 62.7142857,24.5714286 63.8571429,24.5714286 C64.7142857,24.5714286 65,24.7142857 65,25 C64.8571429,25.4285714 64.7142857,25.5714286 63.8571429,25.5714286" id="Path_1280" fill="#FDB614"></path>
                    <path d="M75.5714286,15.4285714 C72.7142857,16.1428571 69.8571429,16.4285714 67,16.7142857 C66.4285714,16.7142857 66.2857143,17 66.2857143,17.7142857 C66.2857143,22.7142857 70.1428571,24 72.8571429,24 C74.1428571,24 75.5714286,23.7142857 76.7142857,23.1428571 C76.8571429,23.1428571 77,23.2857143 77,23.4285714 C75.2857143,24.8571429 73.2857143,25.7142857 71,25.8571429 C68,25.8571429 63.7142857,24.4285714 63.7142857,18.4285714 C63.7142857,13.4285714 67.1428571,10.2857143 70.4285714,10.2857143 C72.5714286,10.4285714 74.4285714,11.4285714 75.8571429,13 C76.4285714,13.5714286 76.8571429,14.1428571 77,14.8571429 C77,15.1428571 76.5714286,15.2857143 75.5714286,15.4285714 M70,11.1428571 C67.2857143,11.1428571 66.4285714,15.2857143 66.4285714,15.7142857 C66.4285714,15.8571429 66.4285714,16 66.8571429,16 C68.7142857,16 70.7142857,15.5714286 73.4285714,15.1428571 C73.8571429,15 73.8571429,15 73.8571429,14.7142857 C73.7142857,13.8571429 71.7142857,11.1428571 70,11.1428571" id="Path_1281" fill="#FDB614"></path>
                    <path d="M83.4285714,25.4285714 C82.8571429,25.4285714 82.1428571,25.2857143 81.4285714,25.2857143 C80.1428571,25.2857143 78.2857143,25.4285714 77.8571429,25.4285714 C77,25.4285714 77,25.2857143 77,25 C77,24.7142857 77,24.5714286 77.8571429,24.5714286 C79.4285714,24.5714286 80,24.5714286 80,24 L80,4.14285714 C80,1.85714286 79.7142857,1.85714286 78.1428571,1.85714286 C77.4285714,1.85714286 77.1428571,1.85714286 77.1428571,1.42857143 C77.1428571,1 77.4285714,1 78,1 C79.4285714,0.857142857 81,0.714285714 82.4285714,0.285714286 C82.5714286,0.285714286 82.8571429,0.428571429 82.8571429,0.857142857 C82.8571429,1.28571429 82.7142857,2.57142857 82.7142857,3.71428571 C82.7142857,17.4285714 82.5714286,20.2857143 82.5714286,21.2857143 C82.5714286,24.2857143 82.8571429,24.7142857 83.4285714,24.7142857 C85.2857143,24.7142857 85.1428571,25 85.1428571,25.2857143 C85,25.2857143 84.7142857,25.4285714 83.4285714,25.4285714" id="Path_1282" fill="#FDB614"></path>
                    <path d="M96.2857143,15.4285714 C93.4285714,16.1428571 90.5714286,16.4285714 87.7142857,16.7142857 C87.1428571,16.7142857 87,17 87,17.7142857 C87,22.7142857 90.8571429,24 93.5714286,24 C94.8571429,24 96.2857143,23.7142857 97.4285714,23.1428571 C97.5714286,23.1428571 97.7142857,23.2857143 97.7142857,23.4285714 C96,24.8571429 94,25.7142857 91.7142857,25.8571429 C88.7142857,25.8571429 84.4285714,24.4285714 84.4285714,18.4285714 C84.4285714,13.4285714 87.8571429,10.2857143 91.1428571,10.2857143 C93.2857143,10.4285714 95.1428571,11.4285714 96.5714286,13 C97.1428571,13.5714286 97.4285714,14.1428571 97.7142857,14.8571429 C97.7142857,15.1428571 97.2857143,15.2857143 96.2857143,15.4285714 M90.7142857,11.1428571 C88,11.1428571 87.1428571,15.2857143 87.1428571,15.7142857 C87.1428571,15.8571429 87.1428571,16 87.5714286,16 C89.4285714,16 91.4285714,15.5714286 94.1428571,15.1428571 C94.5714286,15 94.5714286,15 94.5714286,14.7142857 C94.4285714,13.8571429 92.2857143,11.1428571 90.7142857,11.1428571" id="Path_1283" fill="#FDB614"></path>
                    <path d="M112.571429,11.5714286 C111.857143,11.5714286 110.142857,15.8571429 107.428571,22.7142857 C105.142857,28.1428571 103.571429,31.1428571 102.428571,33.4285714 C102,34.1428571 101.571429,34.2857143 100.857143,34.4285714 C99.7142857,34.5714286 99.5714286,34.8571429 98.7142857,34.8571429 C98.1428571,34.8571429 97.7142857,34.7142857 97.7142857,34.4285714 C97.7142857,34.2857143 99.4285714,34 100.571429,32.4285714 C101.857143,30.8571429 105,26.5714286 105,25.4285714 C105,25 102.142857,18.4285714 100.142857,13.7142857 C99.2857143,11.5714286 99,11.4285714 98.2857143,11.4285714 C97.5714286,11.4285714 97.5714286,11.4285714 97.5714286,11 C97.5714286,10.5714286 97.7142857,10.4285714 98.2857143,10.4285714 C99.2857143,10.4285714 99.5714286,10.5714286 100.428571,10.5714286 C101.428571,10.5714286 102.714286,10.4285714 103.857143,10.4285714 C104.571429,10.4285714 104.714286,10.5714286 104.714286,11 C104.714286,11.4285714 104.571429,11.4285714 103.857143,11.4285714 C103.142857,11.4285714 102.714286,11.7142857 102.714286,12.4285714 C102.714286,13.4285714 103.714286,14.7142857 105.857143,20.2857143 C106,20.8571429 106.285714,21.2857143 106.714286,21.7142857 C107,21.7142857 107.142857,21.1428571 107.714286,19.5714286 C108.571429,17 109.857143,13.2857143 109.857143,12.7142857 C109.857143,11.5714286 109.857143,11.4285714 108.571429,11.4285714 C107.285714,11.4285714 107.285714,11.4285714 107.285714,11 C107.285714,10.5714286 107.428571,10.5714286 108,10.5714286 C109,10.5714286 109.571429,10.7142857 110.571429,10.7142857 C111.142857,10.7142857 112.142857,10.5714286 112.571429,10.5714286 C113,10.5714286 113.285714,10.5714286 113.285714,11 C113.428571,11.5714286 113,11.7142857 112.571429,11.5714286" id="Path_1284" fill="#FDB614"></path>
                </g>
                <g id="Group_804" transform="translate(0.000000, 7.304286)">
                    <g id="Group_802-2" transform="translate(116.581429, 0.217143)" fill="#15284B">
                        <path d="M10.8571429,21.4285714 C8.85714286,21.4285714 6.85714286,21.4285714 5,21.4285714 C4.57142857,21.4285714 4.28571429,21.4285714 4.28571429,20.8571429 C4.28571429,18.8571429 4.28571429,16.7142857 4.28571429,14.7142857 C4.28571429,14.2857143 4.42857143,14.1428571 4.85714286,14.1428571 C6.14285714,14.1428571 7.42857143,14.1428571 8.71428571,14.1428571 C9.28571429,14.1428571 9.57142857,14 9.42857143,13.4285714 C9.42857143,12.7142857 9.42857143,11.8571429 9.42857143,11.1428571 C9.42857143,10.5714286 9.28571429,10.2857143 8.57142857,10.2857143 C7.28571429,10.2857143 6,10.2857143 4.71428571,10.2857143 C4.28571429,10.2857143 4.14285714,10.1428571 4.14285714,9.71428571 C4.14285714,8 4.14285714,6.28571429 4.14285714,4.57142857 C4.14285714,4 4.28571429,3.85714286 4.85714286,3.85714286 C6.71428571,3.85714286 8.42857143,3.85714286 10.2857143,3.85714286 C10.7142857,3.85714286 10.8571429,3.71428571 10.8571429,3.28571429 C10.8571429,2.42857143 10.8571429,1.42857143 10.8571429,0.571428571 C10.8571429,0.142857143 10.7142857,1.11022302e-15 10.2857143,1.11022302e-15 C7.14285714,1.11022302e-15 3.85714286,1.11022302e-15 0.714285714,1.11022302e-15 C0.142857143,1.11022302e-15 0,0.142857143 0,0.714285714 C0,8.71428571 0,16.5714286 0,24.5714286 C0,25.1428571 0.285714286,25.2857143 0.714285714,25.2857143 C2.28571429,25.2857143 4,25.2857143 5.57142857,25.2857143 C7.28571429,25.2857143 9,25.2857143 10.7142857,25.2857143 C11.1428571,25.2857143 11.2857143,25.1428571 11.2857143,24.7142857 C11.2857143,23.8571429 11.2857143,23 11.2857143,22.1428571 C11.5714286,21.5714286 11.2857143,21.4285714 10.8571429,21.4285714 Z" id="Path_2044"></path>
                        <path d="M76.2857143,5.57142857 C76.2857143,4 76.2857143,2.28571429 76.2857143,0.714285714 C76.2857143,0.285714286 76.1428571,0.142857143 75.7142857,0.142857143 C75,0.142857143 74.2857143,0.142857143 73.5714286,0.142857143 C72.8571429,0.142857143 72.5714286,0.285714286 72.5714286,1 C72.5714286,3.71428571 72.5714286,6.42857143 72.5714286,9.14285714 C72.1428571,8.85714286 71.7142857,8.57142857 71.4285714,8.28571429 C70.8571429,7.85714286 70.1428571,7.57142857 69.2857143,7.57142857 C67,7.42857143 65.2857143,8.85714286 65.2857143,11.4285714 C65.1428571,14.8571429 65.1428571,18.2857143 65.2857143,21.7142857 C65.4285714,24.8571429 67.5714286,26.2857143 70.4285714,25.4285714 C71.4285714,25 72.2857143,24.4285714 72.8571429,23.5714286 C72.8571429,23.8571429 72.8571429,24.2857143 72.8571429,24.5714286 C72.7142857,25.1428571 73,25.4285714 73.5714286,25.2857143 C74.1428571,25.2857143 74.7142857,25.2857143 75.2857143,25.2857143 C76,25.4285714 76.2857143,25.1428571 76.2857143,24.2857143 C76.2857143,18.1428571 76.2857143,11.8571429 76.2857143,5.57142857 Z M72.7142857,16.5714286 L72.7142857,21 C72.7142857,21.8571429 72.1428571,22.2857143 71.1428571,22.5714286 C70.4285714,22.8571429 69.5714286,22.4285714 69.1428571,21.7142857 C68.8571429,21.1428571 68.8571429,20.5714286 68.8571429,20 C68.8571429,17.7142857 68.8571429,15.5714286 68.8571429,13.2857143 C68.8571429,13.1428571 68.8571429,12.8571429 68.8571429,12.7142857 C69.1428571,10.5714286 70.2857143,10 72.1428571,11.1428571 C72.4285714,11.2857143 72.5714286,11.5714286 72.5714286,12 C72.5714286,13.4285714 72.7142857,15 72.7142857,16.5714286 L72.7142857,16.5714286 Z" id="Path_2045"></path>
                        <path d="M35.4285714,19.2857143 C35.2857143,19.2857143 35,19.2857143 34.8571429,19.2857143 C34.2857143,19.2857143 33.7142857,19 33.2857143,19.4285714 C33,19.7142857 33.1428571,20.2857143 33.1428571,20.7142857 C33.1428571,21.7142857 32.2857143,22.5714286 31.2857143,22.5714286 C31.2857143,22.5714286 31.2857143,22.5714286 31.1428571,22.5714286 C30,22.5714286 29.4285714,22 29.2857143,20.7142857 C29.1428571,19.8571429 29.2857143,18.8571429 29.1428571,18 C29.1428571,17.2857143 29.2857143,17.1428571 30,17.1428571 C32,17.1428571 34.1428571,17.1428571 36.1428571,17.1428571 C36.5714286,17.1428571 36.8571429,17.2857143 36.8571429,16.5714286 C36.8571429,15.1428571 37,13.5714286 36.7142857,12.1428571 C36.4285714,9.42857143 34.8571429,7.71428571 32.1428571,7.42857143 C28.7142857,7 26,8.28571429 25.4285714,12.2857143 C25.2857143,13.7142857 25.2857143,15 25.2857143,16.4285714 C25.2857143,17.5714286 25.2857143,18.7142857 25.2857143,19.8571429 C25.4285714,23.1428571 27,25 30,25.4285714 C33.5714286,26 36.1428571,24 36.5714286,20.7142857 C36.8571429,19 37.1428571,19.2857143 35.4285714,19.2857143 Z M29.7142857,11.1428571 C30.1428571,10.5714286 31,10.2857143 31.7142857,10.5714286 C32.4285714,10.7142857 33,11.4285714 33.1428571,12.2857143 C33.5714286,14.1428571 33.2857143,14.2857143 31.5714286,14.2857143 L31.2857143,14.2857143 C31.1428571,14.2857143 31.1428571,14.2857143 31,14.2857143 C30.4285714,14.1428571 29.4285714,14.5714286 29.2857143,14.1428571 C29,13 29.1428571,12 29.7142857,11.1428571 Z" id="Path_2046"></path>
                        <path d="M49.2857143,18.5714286 C48.4285714,18.5714286 47.4285714,18.5714286 46.5714286,18.5714286 C46.1428571,18.5714286 46,18.7142857 46,19.1428571 C46,19.7142857 46,20.2857143 45.8571429,20.7142857 C45.8571429,21.7142857 45,22.4285714 44,22.4285714 C44,22.4285714 44,22.4285714 43.8571429,22.4285714 C42.7142857,22.4285714 42.1428571,21.8571429 42,20.7142857 C41.8571429,19 41.8571429,17.2857143 41.8571429,15.5714286 C41.7142857,14.4285714 41.8571429,13.2857143 42,12.1428571 C42,11.1428571 42.8571429,10.4285714 43.8571429,10.4285714 C44.8571429,10.4285714 45.4285714,11 45.7142857,12.1428571 C45.8571429,12.7142857 45.4285714,13.4285714 46,13.7142857 C46.5714286,13.8571429 47.1428571,13.8571429 47.8571429,13.8571429 C48.1428571,13.8571429 48.5714286,13.8571429 48.8571429,13.8571429 C49.4285714,13.8571429 49.5714286,13.7142857 49.4285714,13.1428571 C49.4285714,12.8571429 49.4285714,12.7142857 49.4285714,12.4285714 C49.1428571,10.5714286 48.5714286,9 46.8571429,8.14285714 C42.7142857,6 38.2857143,8.57142857 38.2857143,13.2857143 C38.1428571,15.5714286 38.1428571,17.7142857 38.2857143,20 C38.2857143,20.4285714 38.4285714,21 38.4285714,21.4285714 C38.8571429,23.4285714 39.8571429,24.8571429 42,25.4285714 C43.1428571,25.7142857 44.2857143,25.7142857 45.2857143,25.5714286 C47,25.2857143 48.4285714,24.1428571 49,22.4285714 C49.2857143,21.4285714 49.5714286,20.2857143 49.5714286,19.1428571 C49.8571429,18.8571429 49.7142857,18.5714286 49.2857143,18.5714286 Z" id="Path_2047"></path>
                        <path d="M21.4285714,15 C22.5714286,12.5714286 23.7142857,10.1428571 24.8571429,7.71428571 C23.7142857,7.71428571 22.7142857,7.71428571 21.7142857,7.71428571 C21.2857143,7.71428571 20.8571429,7.85714286 20.8571429,8.28571429 C20.2857143,9.57142857 19.8571429,11 19.1428571,12.4285714 C18.5714286,10.8571429 18,9.57142857 17.5714286,8.28571429 C17.5714286,7.85714286 17.1428571,7.57142857 16.7142857,7.71428571 C16.7142857,7.71428571 16.7142857,7.71428571 16.7142857,7.71428571 C15.8571429,7.71428571 15,7.71428571 14.1428571,7.71428571 C13.5714286,7.71428571 13.4285714,7.85714286 13.7142857,8.42857143 C14.7142857,10.7142857 15.7142857,13 16.8571429,15.4285714 C17,15.8571429 17,16.2857143 16.8571429,16.7142857 C16.1428571,18.2857143 15.4285714,20 14.7142857,21.7142857 C14.1428571,23 13.7142857,24.1428571 13.1428571,25.4285714 C14.2857143,25.4285714 15.2857143,25.4285714 16.4285714,25.4285714 C16.8571429,25.4285714 17.1428571,25.2857143 17.2857143,24.8571429 C17.7142857,23.5714286 18.1428571,22.2857143 18.7142857,21 C18.8571429,20.5714286 19,20.1428571 19.2857143,19.5714286 C20,21.5714286 20.5714286,23.2857143 21.1428571,25 C21.2857143,25.2857143 21.2857143,25.5714286 21.7142857,25.5714286 C22.8571429,25.5714286 24,25.5714286 25.2857143,25.5714286 C24,22.7142857 22.8571429,19.8571429 21.7142857,17.1428571 C21.1428571,16.2857143 21.1428571,15.5714286 21.4285714,15 Z" id="Path_2048"></path>
                        <path d="M62.4285714,21.4285714 C60.4285714,21.4285714 58.4285714,21.4285714 56.5714286,21.4285714 C56.1428571,21.4285714 55.8571429,21.4285714 55.8571429,20.8571429 C55.8571429,18.8571429 55.8571429,16.7142857 55.8571429,14.7142857 C55.8571429,14.2857143 56,14.1428571 56.4285714,14.1428571 C57.7142857,14.1428571 59,14.1428571 60.2857143,14.1428571 C60.8571429,14.1428571 61.1428571,14 61,13.4285714 C61,12.7142857 61,11.8571429 61,11.1428571 C61,10.5714286 60.8571429,10.2857143 60.1428571,10.2857143 C58.8571429,10.2857143 57.5714286,10.2857143 56.2857143,10.2857143 C55.8571429,10.2857143 55.7142857,10.1428571 55.7142857,9.71428571 C55.7142857,8 55.7142857,6.28571429 55.7142857,4.57142857 C55.7142857,4 55.8571429,3.85714286 56.4285714,3.85714286 C58.2857143,3.85714286 60,3.85714286 61.8571429,3.85714286 C62.2857143,3.85714286 62.4285714,3.71428571 62.4285714,3.28571429 C62.4285714,2.42857143 62.4285714,1.42857143 62.4285714,0.571428571 C62.4285714,0.142857143 62.2857143,1.11022302e-15 61.8571429,1.11022302e-15 C58.7142857,1.11022302e-15 55.4285714,1.11022302e-15 52.2857143,1.11022302e-15 C51.7142857,1.11022302e-15 51.5714286,0.142857143 51.5714286,0.714285714 C51.5714286,8.71428571 51.5714286,16.5714286 51.5714286,24.5714286 C51.5714286,25.1428571 51.8571429,25.2857143 52.2857143,25.2857143 C53.8571429,25.2857143 55.5714286,25.2857143 57.1428571,25.2857143 C58.8571429,25.2857143 60.5714286,25.2857143 62.2857143,25.2857143 C62.7142857,25.2857143 62.8571429,25.1428571 62.8571429,24.7142857 C62.8571429,23.8571429 62.8571429,23 62.8571429,22.1428571 C63.1428571,21.5714286 63,21.4285714 62.4285714,21.4285714 Z" id="Path_2049"></path>
                    </g>
                    <g id="Group_803" fill="#FDB515">
                        <path d="M8.85714286,12.7142857 C7.71428571,12.7142857 7.42857143,12.8571429 7.42857143,13.8571429 L7.42857143,21.2857143 C7.42857143,21.7142857 7.57142857,24 7.85714286,24.4285714 C8.28571429,24.8571429 9.57142857,25.2857143 11,25.2857143 C14.1428571,25.2857143 16.4285714,23.1428571 16.4285714,19.5714286 C16.4285714,15.7142857 13.2857143,12.7142857 8.85714286,12.7142857 M10.1428571,1.14285714 C7.42857143,1.14285714 7.28571429,1.57142857 7.28571429,2.28571429 L7.28571429,11.4285714 C7.28571429,12.1428571 7.85714286,12 8.85714286,12 C10.2857143,12 11.7142857,12.1428571 13.1428571,12.2857143 C14.2857143,11.2857143 15.7142857,10.5714286 15.7142857,7.28571429 C15.7142857,5.14285714 14,1.14285714 10.1428571,1.14285714 M10.7142857,25.8571429 C9,25.8571429 7.28571429,25.4285714 5.42857143,25.4285714 C3.71428571,25.4285714 2.71428571,25.7142857 1.42857143,25.7142857 C1,25.7142857 0.714285714,25.7142857 0.714285714,25.2857143 C0.714285714,24.8571429 1,24.8571429 1.85714286,24.8571429 C3.71428571,24.8571429 3.85714286,24.7142857 3.85714286,24.1428571 L3.85714286,5 C3.85714286,1.71428571 3.14285714,1.28571429 2,1.28571429 C0.142857143,1.28571429 0,1.28571429 0,0.714285714 C0,0.428571429 0.142857143,0.428571429 0.857142857,0.428571429 C2.14285714,0.428571429 3.42857143,0.428571429 4.85714286,0.428571429 C5.71428571,0.428571429 7.71428571,0.142857143 11.4285714,0.142857143 C16.8571429,0.142857143 19.1428571,2.85714286 19.1428571,5.85714286 C19.1428571,8.85714286 17.4285714,10.2857143 16,11.1428571 C15.4285714,11.4285714 14.8571429,11.8571429 14.2857143,12.2857143 C14.2857143,12.4285714 15.1428571,12.5714286 15.8571429,13 C17.8571429,14 20.2857143,15.4285714 20.2857143,19 C20.2857143,23.7142857 16.4285714,25.8571429 10.7142857,25.8571429" id="Path_2050"></path>
                        <path d="M28,11.2857143 C25.2857143,11.2857143 24.4285714,15.4285714 24.4285714,15.8571429 C24.4285714,16 24.4285714,16 24.8571429,16 C26.7142857,16 28.7142857,15.5714286 31.4285714,15.1428571 C31.8571429,15 31.8571429,15 31.8571429,14.7142857 C31.8571429,14 29.7142857,11.2857143 28,11.2857143 M33.5714286,15.5714286 C30.7142857,16.2857143 27.8571429,16.5714286 24.8571429,16.8571429 C24.2857143,16.8571429 24.1428571,17 24.1428571,17.8571429 C24.1428571,22.8571429 28,24.1428571 30.7142857,24.1428571 C32,24.1428571 33.4285714,23.8571429 34.5714286,23.2857143 C34.7142857,23.2857143 34.8571429,23.4285714 34.8571429,23.5714286 C33.1428571,25 31.1428571,25.8571429 28.8571429,26 C25.8571429,26 21.5714286,24.5714286 21.5714286,18.5714286 C21.5714286,13.4285714 25,10.4285714 28.2857143,10.4285714 C30.4285714,10.5714286 32.4285714,11.5714286 33.7142857,13.1428571 C34.2857143,13.7142857 34.5714286,14.2857143 34.8571429,15 C35,15.2857143 34.5714286,15.4285714 33.5714286,15.5714286" id="Path_2051"></path>
                        <path d="M46.7142857,14.5714286 C46.1428571,14.5714286 45.7142857,13.1428571 44,13.1428571 C41.8571429,13.1428571 41.1428571,14 41.1428571,15.5714286 L41.1428571,23 C41.1428571,24.7142857 41.2857143,24.7142857 43.8571429,24.7142857 C44.8571429,24.7142857 44.8571429,24.8571429 44.8571429,25.1428571 C44.8571429,25.5714286 44.8571429,25.5714286 43.8571429,25.5714286 C43.2857143,25.5714286 41,25.4285714 39.7142857,25.4285714 C38.4285714,25.4285714 37.2857143,25.5714286 36.7142857,25.5714286 C35.8571429,25.5714286 35.8571429,25.5714286 35.8571429,25.1428571 C35.8571429,24.7142857 35.8571429,24.7142857 36.7142857,24.7142857 C38.1428571,24.7142857 38.2857143,24.7142857 38.2857143,24.1428571 L38.2857143,14.2857143 C38.2857143,11.8571429 38.4285714,11.7142857 36.2857143,11.7142857 C35.5714286,11.7142857 35.5714286,11.7142857 35.5714286,11.2857143 C35.5714286,10.8571429 35.5714286,10.7142857 36.1428571,10.7142857 C37.4285714,10.7142857 38,10.8571429 38.7142857,10.8571429 C39.2857143,10.8571429 40,10.7142857 40.5714286,10.7142857 C40.7142857,10.7142857 40.8571429,10.8571429 40.8571429,11.1428571 C40.8571429,11.2857143 40.7142857,12.1428571 40.7142857,12.2857143 C40.7142857,12.5714286 40.7142857,12.8571429 40.8571429,12.8571429 C41.4285714,12.8571429 43.1428571,11 44.8571429,11 C45.5714286,11 47.1428571,11.8571429 47.1428571,12.7142857 C47.5714286,13 47,14.5714286 46.7142857,14.5714286" id="Path_2052"></path>
                        <path d="M63.8571429,25.7142857 C63.4285714,25.7142857 63,25.7142857 62.5714286,25.7142857 C62.1428571,25.7142857 61,25.7142857 60.5714286,25.7142857 C59.8571429,25.7142857 59.5714286,24.8571429 58.1428571,23.1428571 C56.5714286,21.4285714 55.1428571,19.1428571 54.8571429,19.1428571 C54.4285714,19.2857143 54,19.5714286 53.5714286,19.8571429 C53,20.2857143 52.4285714,20.4285714 52.4285714,20.8571429 L52.4285714,23.1428571 C52.4285714,24.8571429 52.2857143,24.8571429 54.5714286,24.8571429 C55.4285714,24.8571429 55.5714286,25 55.5714286,25.2857143 C55.5714286,25.7142857 55.4285714,25.7142857 54.5714286,25.7142857 C54,25.7142857 52.4285714,25.5714286 51.2857143,25.5714286 C50,25.5714286 48.7142857,25.7142857 48.2857143,25.7142857 C47.4285714,25.7142857 47.2857143,25.7142857 47.2857143,25.2857143 C47.2857143,25 47.4285714,24.8571429 48.2857143,24.8571429 C49.5714286,24.8571429 49.8571429,24.8571429 49.8571429,24.2857143 C49.8571429,23.2857143 50,12.5714286 50,5 C50,2.42857143 49.7142857,2.14285714 48.7142857,2.14285714 C47.2857143,2.14285714 47.1428571,2 47.1428571,1.71428571 C47.1428571,1.28571429 47.2857143,1.14285714 47.5714286,1.14285714 C49.2857143,1.14285714 51,0.857142857 52.5714286,0.285714286 C52.7142857,0.285714286 52.8571429,0.428571429 52.8571429,0.571428571 C52.8571429,1 52.7142857,2.57142857 52.7142857,3.71428571 C52.7142857,9.14285714 52.5714286,13.2857143 52.5714286,19.1428571 C52.5714286,19.2857143 52.5714286,19.4285714 52.7142857,19.4285714 C53.5714286,19.4285714 57.4285714,16.1428571 58.5714286,15 C60,13.7142857 60.2857143,13 60.2857143,12.2857143 C60.2857143,11.7142857 60.1428571,11.5714286 58.5714286,11.5714286 C58,11.5714286 57.8571429,11.4285714 57.8571429,11.1428571 C57.8571429,10.8571429 58,10.7142857 58.5714286,10.7142857 C59,10.7142857 59.5714286,10.8571429 60,10.8571429 C60.4285714,10.8571429 62.5714286,10.7142857 63,10.7142857 C63.2857143,10.7142857 63.4285714,10.7142857 63.4285714,10.8571429 C63.4285714,11.1428571 62.1428571,12.7142857 61.1428571,13.8571429 C59.2857143,15.5714286 57.1428571,17.1428571 57.1428571,17.4285714 C57.1428571,17.7142857 57.8571429,18.4285714 60.2857143,21.4285714 C61.5714286,22.8571429 62.7142857,24.7142857 63.8571429,24.7142857 C64.7142857,24.7142857 65,24.8571429 65,25.1428571 C64.8571429,25.5714286 64.5714286,25.7142857 63.8571429,25.7142857" id="Path_2053"></path>
                        <path d="M70,11.2857143 C67.2857143,11.2857143 66.4285714,15.4285714 66.4285714,15.8571429 C66.4285714,16 66.4285714,16 66.8571429,16 C68.7142857,16 70.7142857,15.5714286 73.4285714,15.1428571 C73.8571429,15 73.8571429,15 73.8571429,14.7142857 C73.8571429,14 71.7142857,11.2857143 70,11.2857143 M75.5714286,15.5714286 C72.7142857,16.2857143 69.8571429,16.5714286 66.8571429,16.8571429 C66.2857143,16.8571429 66.1428571,17 66.1428571,17.8571429 C66.1428571,22.8571429 70,24.1428571 72.7142857,24.1428571 C74,24.1428571 75.4285714,23.8571429 76.5714286,23.2857143 C76.7142857,23.2857143 76.8571429,23.4285714 76.8571429,23.5714286 C75.1428571,25 73.1428571,25.8571429 70.8571429,26 C67.8571429,26 63.5714286,24.5714286 63.5714286,18.5714286 C63.5714286,13.4285714 67,10.4285714 70.2857143,10.4285714 C72.4285714,10.5714286 74.4285714,11.5714286 75.7142857,13.1428571 C76.2857143,13.7142857 76.5714286,14.2857143 76.8571429,15 C77,15.2857143 76.5714286,15.4285714 75.5714286,15.5714286" id="Path_2054"></path>
                        <path d="M83.5714286,25.5714286 C83,25.5714286 82.2857143,25.4285714 81.5714286,25.4285714 C80.2857143,25.4285714 78.4285714,25.5714286 78,25.5714286 C77.1428571,25.5714286 77.1428571,25.4285714 77.1428571,25.1428571 C77.1428571,24.8571429 77.1428571,24.7142857 78,24.7142857 C79.4285714,24.7142857 80.1428571,24.7142857 80.1428571,24.1428571 L80.1428571,4.28571429 C80.1428571,2 80,2 78.2857143,2 C77.5714286,2 77.1428571,1.85714286 77.1428571,1.42857143 C77.1428571,1 77.4285714,1 78,1 C79.4285714,0.857142857 81,0.714285714 82.4285714,0.142857143 C82.5714286,0.142857143 82.8571429,0.285714286 82.8571429,0.714285714 C82.8571429,1.14285714 82.7142857,2.42857143 82.7142857,3.57142857 C82.7142857,17.2857143 82.5714286,20.1428571 82.5714286,21.1428571 C82.5714286,24.1428571 82.8571429,24.5714286 83.4285714,24.5714286 C85.2857143,24.5714286 85.1428571,24.7142857 85.1428571,25.1428571 C85,25.5714286 84.8571429,25.5714286 83.5714286,25.5714286" id="Path_2055"></path>
                        <path d="M90.8571429,11.2857143 C88.1428571,11.2857143 87.2857143,15.4285714 87.2857143,15.8571429 C87.2857143,16 87.2857143,16 87.7142857,16 C89.5714286,16 91.5714286,15.5714286 94.2857143,15.1428571 C94.7142857,15 94.7142857,15 94.7142857,14.7142857 C94.5714286,14 92.4285714,11.2857143 90.8571429,11.2857143 M96.4285714,15.5714286 C93.5714286,16.2857143 90.7142857,16.5714286 87.7142857,16.8571429 C87.1428571,16.8571429 87,17 87,17.8571429 C87,22.8571429 90.8571429,24.1428571 93.5714286,24.1428571 C94.8571429,24.1428571 96.2857143,23.8571429 97.4285714,23.2857143 C97.5714286,23.2857143 97.7142857,23.4285714 97.7142857,23.5714286 C96,25 94,25.8571429 91.7142857,26 C88.7142857,26 84.4285714,24.5714286 84.4285714,18.5714286 C84.4285714,13.4285714 87.8571429,10.4285714 91.1428571,10.4285714 C93.2857143,10.5714286 95.2857143,11.5714286 96.5714286,13.1428571 C97.1428571,13.7142857 97.4285714,14.2857143 97.7142857,15 C97.8571429,15.2857143 97.2857143,15.4285714 96.4285714,15.5714286" id="Path_2056"></path>
                        <path d="M112.714286,11.7142857 C111.857143,11.7142857 110.285714,16 107.428571,23 C105.142857,28.5714286 103.571429,31.4285714 102.428571,33.8571429 C102,34.7142857 101.571429,34.7142857 100.857143,34.8571429 C99.7142857,35 99.5714286,35.2857143 98.7142857,35.2857143 C98.1428571,35.2857143 97.7142857,35.1428571 97.7142857,34.8571429 C97.7142857,34.7142857 99.4285714,34.4285714 100.571429,32.8571429 C101.857143,31.2857143 105,27 105,25.8571429 C105,25.4285714 102.142857,18.8571429 100.142857,14.1428571 C99.2857143,12 99,11.8571429 98.2857143,11.8571429 C97.5714286,11.8571429 97.5714286,11.8571429 97.5714286,11.4285714 C97.5714286,11 97.7142857,10.8571429 98.2857143,10.8571429 C99.2857143,10.8571429 99.5714286,11 100.428571,11 C101.428571,11 102.714286,10.8571429 103.857143,10.8571429 C104.571429,10.8571429 104.714286,11 104.714286,11.4285714 C104.714286,11.7142857 104.571429,11.8571429 103.857143,11.8571429 C103,11.8571429 102.857143,12 102.857143,12.8571429 C102.857143,13.8571429 103.857143,15.1428571 106,20.7142857 C106.285714,21.4285714 106.714286,22.1428571 106.857143,22.1428571 C107.142857,22.1428571 107.285714,21.5714286 107.857143,20 C108.714286,17.4285714 110,13.7142857 110,13.1428571 C110,12 110,11.8571429 108.714286,11.8571429 C107.571429,11.8571429 107.428571,11.8571429 107.428571,11.4285714 C107.428571,11 107.571429,11 108.142857,11 C109.142857,11 109.714286,11.1428571 110.714286,11.1428571 C111.285714,11.1428571 112.285714,11 112.714286,11 C113.285714,11 113.428571,11 113.428571,11.4285714 C113.571429,11.5714286 113.142857,11.7142857 112.714286,11.7142857" id="Path_2057"></path>
                    </g>
                </g>
            </g>
        </g>
    </g>
</svg>