<svg xmlns="http://www.w3.org/2000/svg" width="360" height="210"><g fill="none" fill-rule="evenodd"><path fill="#FDB515" d="M0 210h360V0H0z"/><g fill="#FFF"><path d="M201.725 94.483h-3.639a1.706 1.706 0 000 3.412h3.64a1.706 1.706 0 00-.001-3.412m-2.22 16.292l-.91 3.64a.113.113 0 01-.11.085h-37.192a.113.113 0 01-.11-.086l-.91-3.639c-.004-.017-.014-.055.021-.098.034-.044.072-.044.089-.044h39.012c.016 0 .055 0 .089.044.035.043.025.081.021.098m-.11-3.554h-39.012a3.504 3.504 0 00-2.779 1.356 3.501 3.501 0 00-.641 3.025l.91 3.64a3.52 3.52 0 003.42 2.67h37.192a3.52 3.52 0 003.42-2.67l.91-3.64a3.504 3.504 0 00-.641-3.025 3.504 3.504 0 00-2.779-1.356"/><path d="M221.629 92.55c0-1.065.867-1.933 1.933-1.933h1.82c1.066 0 1.933.868 1.933 1.933a1.936 1.936 0 01-1.933 1.934h-1.82a1.936 1.936 0 01-1.933-1.934zm2.046 15.292v19.283a3.756 3.756 0 01-3.752 3.753H203.43v-3.753a3.53 3.53 0 00-3.525-3.526h-40.033a3.53 3.53 0 00-3.526 3.526v3.753h-16.49a3.756 3.756 0 01-3.753-3.753v-19.283c0-1.261.433-2.497 1.22-3.481l5.171-6.465h48.313a1.706 1.706 0 000-3.412H144.11l5.14-14.134a3.766 3.766 0 013.527-2.471h54.224c1.572 0 2.989.993 3.526 2.47l5.14 14.135h-6.663a1.706 1.706 0 100 3.412h8.278l5.172 6.465a5.588 5.588 0 011.222 3.48zm-.112 33.954h-5.46a.114.114 0 01-.114-.113v-7.393h1.933c1.376 0 2.662-.39 3.754-1.065v8.458a.114.114 0 01-.114.113zm-23.544-10.918H159.76v-3.753c0-.063.05-.114.113-.114h40.034c.063 0 .113.05.113.114v3.753zm-58.229 10.805a.114.114 0 01-.114.113h-5.46a.112.112 0 01-.112-.113v-8.458a7.11 7.11 0 003.752 1.065h1.934v7.393zm-5.574-47.2h-1.82a1.935 1.935 0 01-1.933-1.933c0-1.065.867-1.933 1.933-1.933h1.82c1.065 0 1.933.868 1.933 1.933a1.936 1.936 0 01-1.933 1.934zm33.844-24.147a1.938 1.938 0 011.896-1.555h15.869c.918 0 1.715.654 1.895 1.555l.826 4.132h-21.313l.827-4.132zm55.323 27.56a5.352 5.352 0 005.346-5.345 5.352 5.352 0 00-5.346-5.345h-1.82a5.356 5.356 0 00-5.278 4.494l-4.55-12.515A7.188 7.188 0 00207 74.467h-12.975l-.96-4.801a5.36 5.36 0 00-5.241-4.298h-15.87a5.363 5.363 0 00-5.242 4.298l-.96 4.8h-12.975a7.187 7.187 0 00-6.733 4.718l-4.552 12.515a5.353 5.353 0 00-5.277-4.494h-1.819a5.351 5.351 0 00-5.345 5.345 5.35 5.35 0 005.345 5.346h1.82c.84 0 1.635-.196 2.343-.542l-3.9 4.875a9.014 9.014 0 00-1.968 5.613v33.84a3.529 3.529 0 003.524 3.526h5.46a3.53 3.53 0 003.526-3.525v-7.393h69.376v7.393a3.53 3.53 0 003.526 3.525h5.46a3.53 3.53 0 003.525-3.525v-33.841c0-2.033-.7-4.026-1.97-5.613l-3.9-4.875a5.33 5.33 0 002.344.542h1.82z"/><path d="M147.134 119.96a3.53 3.53 0 00-3.526 3.525 3.53 3.53 0 003.526 3.526 3.529 3.529 0 003.525-3.526 3.528 3.528 0 00-3.525-3.525m65.51 0a3.53 3.53 0 00-3.526 3.525 3.53 3.53 0 003.526 3.526 3.53 3.53 0 003.526-3.526 3.53 3.53 0 00-3.526-3.525m-66.42-5.46c-1.568 0-2.843-1.275-2.843-2.843s1.275-2.844 2.843-2.844 2.843 1.276 2.843 2.844a2.846 2.846 0 01-2.843 2.843m0-9.098c-3.449 0-6.255 2.806-6.255 6.255s2.806 6.255 6.255 6.255c3.45 0 6.255-2.806 6.255-6.255s-2.806-6.255-6.255-6.255m67.329 9.098c-1.568 0-2.843-1.275-2.843-2.843s1.275-2.844 2.843-2.844 2.843 1.276 2.843 2.844a2.846 2.846 0 01-2.843 2.843m0-9.098c-3.449 0-6.255 2.806-6.255 6.255s2.806 6.255 6.255 6.255c3.45 0 6.255-2.806 6.255-6.255s-2.806-6.255-6.255-6.255"/></g></g></svg>