<svg xmlns="http://www.w3.org/2000/svg" width="360" height="210"><g fill="none" fill-rule="evenodd"><path fill="#15284B" d="M0 210h360V0H0z"/><g fill="#FFF"><path d="M217.833 126.28h-73.9a1.37 1.37 0 01-1.37-1.369v-4.106h76.64v4.106a1.37 1.37 0 01-1.37 1.368zm-39.688 8.21h6.843v-5.475h-6.843v5.475zm20.528 4.105v1.37h-35.582v-1.37a1.37 1.37 0 011.368-1.369h32.846a1.37 1.37 0 011.368 1.37zm-54.74-67.057h73.9c.756 0 1.37.612 1.37 1.368v4.22h-76.641v-4.22c0-.756.613-1.368 1.37-1.368zm-1.37 46.53h76.64V79.862h-76.641v38.206zm75.27-49.268h-73.9a4.106 4.106 0 00-4.108 4.106v52.005a4.105 4.105 0 004.106 4.105h31.476v5.475H164.46a4.105 4.105 0 00-4.105 4.105v2.737c0 .756.613 1.37 1.37 1.37h38.318a1.37 1.37 0 001.368-1.37v-2.737a4.105 4.105 0 00-4.105-4.105h-9.58v-5.475h30.108a4.105 4.105 0 004.105-4.105V72.906a4.106 4.106 0 00-4.106-4.106z"/><path d="M170.182 101.645h-14.181l-2.19-10.948h18.559l-2.188 10.948zm3.858-13.685h-20.829l-1.109-4.435a1.367 1.367 0 00-1.327-1.037h-4.106a1.367 1.367 0 100 2.736h3.037l3.831 18.066a1.371 1.371 0 001.343 1.094h16.423a1.37 1.37 0 001.341-1.095l2.737-13.685a1.368 1.368 0 00-1.341-1.644zm-16.423 23.266a1.369 1.369 0 11.001-2.737 1.369 1.369 0 01-.001 2.737m0-5.475a4.106 4.106 0 10.002 8.212 4.106 4.106 0 00-.002-8.212m12.317 5.475a1.369 1.369 0 11-.002-2.738 1.369 1.369 0 01.003 2.738m0-5.475a4.106 4.106 0 100 8.212 4.106 4.106 0 00-.001-8.212m36.951-19.159h-24.634a1.367 1.367 0 100 2.737h24.634a1.368 1.368 0 000-2.737m5.475 2.738h2.736a1.37 1.37 0 000-2.738h-2.736a1.368 1.368 0 10.001 2.738m-5.476 2.735h-24.634a1.368 1.368 0 000 2.737h24.634a1.367 1.367 0 100-2.737m8.211 0h-2.736a1.368 1.368 0 000 2.737h2.737a1.37 1.37 0 100-2.737m-8.212 5.475h-24.634a1.367 1.367 0 100 2.737h24.634a1.368 1.368 0 000-2.737m8.211 0h-2.736a1.367 1.367 0 100 2.737h2.737a1.37 1.37 0 100-2.737m-8.212 5.475h-24.634a1.367 1.367 0 100 2.736h24.634a1.367 1.367 0 100-2.736m8.211 0h-2.736a1.367 1.367 0 100 2.736h2.737a1.37 1.37 0 100-2.736"/></g></g></svg>