<svg xmlns="http://www.w3.org/2000/svg" width="360" height="210"><g fill="none" fill-rule="evenodd"><path fill="#FDB515" d="M0 210h360V0H0z"/><g fill="#FFF"><path d="M138.817 112.552l.009-13.418-.01-3.433.01-13.42.004-3.43c.49-3.342 2.442-5.216 5.754-5.72 1.143-.002 2.286-.005 3.429-.01l13.422-.003c1.143 0 2.286.003 3.429.004l13.422-.004c1.143 0 2.286.003 3.429.004 1.09.019 2.179.04 3.269.056.973.013 1.752.386 1.746 1.438-.008 1.047-.762 1.406-1.757 1.405-2.417-.002-4.835.034-7.253.054l-3.15-.008-13.418.01c-1.33-.002-2.66-.005-3.99-.01-4.06-.016-8.12-.034-12.18-.048-.476-.002-.942.059-1.358.323-.778.248-1.31.749-1.566 1.53-.307.402-.343.876-.342 1.35.01 4.257.029 8.512.045 12.768l.009 3.43-.01 13.42c0 .952.003 1.905.004 2.858l.005.574-.01 13.419.01 3.43c-.357 1.16.31 1.224 1.194 1.183.98-.045 1.708.366 1.677 1.463-.03 1.02-.746 1.347-1.658 1.35-1.568.007-3.136-.001-4.704.007-2.674.012-2.65.014-2.58 2.74.03 1.215.554 1.923 1.775 1.925 3.324.005 6.648-.04 9.97-.066 1.236.137 2.47.142 3.706.007 4.382.12 8.764.135 13.145-.01 1.236.135 2.472.14 3.708.007 4.38.128 8.762.136 13.144-.006 1.235.135 2.47.14 3.707.007 4.38.126 8.762.136 13.143-.008 1.236.135 2.472.139 3.708.007 4.382.129 8.763.133 13.145-.003 1.234.137 2.469.14 3.704.006 1.127.025 2.254.069 3.38.072 4.234.009 4.297-.065 4.015-4.397.04-.208-.045-.284-.248-.233l-3.995.01-3.151-.011-13.702.013-3.148-.011c-3.603-.017-7.207-.043-10.81-.047-1.207-.002-2.55-.377-3.276 1.122-.093.19-.5.228-.76.336h-3.433c-2.648-.018-5.295-.064-7.943-.04-.95.01-1.663-.243-2.07-1.14.027-.207-.065-.281-.264-.23l-1.998.01-3.148-.011-13.702.009-3.15-.01c-.424-.017-.848-.053-1.271-.047-.983.014-1.891-.18-1.92-1.364-.03-1.272.904-1.477 1.95-1.477 1.652 0 3.304-.036 4.955-.057l3.432.009.855-.005 12.564-.006 3.432.009.569-.003 12.85-.005 3.433.01 13.419-.011 3.43.009c3.458.018 6.914.023 10.37.068.628.008.807-.19.799-.806-.042-3.457-.046-6.914-.062-10.37l-.01-3.431c.02-2.474.053-4.947.054-7.42 0-1.06.223-2.003 1.494-1.96 1.179.04 1.357.969 1.352 1.959-.007 1.235.027 2.47.043 3.708l.01 3.432-.01 13.418c-.271 1.105.064 1.65 1.289 1.464.499-.075 1.015-.046 1.523-.063 2.339.38 3.024 1.29 3.166 3.597.329 5.367-1.674 7.089-6.696 6.819-2.748-.15-5.512.026-8.268.056-1.005-.158-2.012-.112-3.02-.027-4.61-.086-9.22-.135-13.83.027-1.005-.158-2.012-.111-3.02-.027-4.616-.085-9.233-.135-13.848.027-1-.16-2.001-.111-3.003-.027-4.495-.092-8.99-.122-13.485.018l-3.653-.018c-4.4-.09-8.8-.124-13.198.018l-3.366-.018c-1.944-.021-3.89-.033-5.832-.064-3.005-.048-4.743-1.801-4.775-4.806a95.055 95.055 0 010-2.136c.025-2.283 1.117-3.351 3.439-3.384.568-.007 1.135-.042 1.703-.064.776.224.99-.103.803-.82l.009-13.42-.01-3.432"/><path d="M165.726 107.053c.032 1.468.03 2.753-.76 3.864-.341.482.113.68.378.904 1.155.97 2.265 2.56 3.512 2.682.998.097 2.172-1.597 3.267-2.497.11-.091.21-.193.323-.28.336-.253.512-.482.197-.926-.634-.89-.743-1.935-.691-2.995.027-.565-.138-.786-.737-.605-1.78.54-3.56.36-5.49-.147m1.7 10.374c-1.687-1.59-3.408-3.138-5.283-4.507-1.77.668-3.541 1.329-5.305 2.009a5.371 5.371 0 00-1.007.522c-1.221.804-1.982 1.939-2.067 3.398-.091 1.56-.02 3.13-.053 4.697-.011.54.165.705.72.754 2.449.216 2.446.239 2.467-2.271.003-.285-.02-.574.02-.853.11-.801.558-1.358 1.385-1.352.885.006 1.377.558 1.412 1.456.035.899.045 1.8.066 2.7-.05.198.018.286.226.24h1.14l3.148.01c3.648.017 7.296.04 10.943.052 2.64.008 2.654 0 2.71-2.601.017-.813.134-1.534 1.032-1.802.917-.273 1.402.295 1.798.994l.077 2.82c.475 1.186 1.482.374 2.22.574.63.17.937-.116.908-.836-.056-1.423.022-2.852-.048-4.274-.1-1.987-1.097-3.398-2.952-4.153-1.536-.626-3.1-1.188-4.626-1.836-.655-.278-1.098-.184-1.632.293-1.733 1.55-3.522 3.038-5.29 4.55-.784.203-1.398-.183-2.008-.584m-.576-13.123c1.626.73 3.222.538 4.746-.26 2.943-1.54 3.587-4.158 3.263-7.198.11-1.236.127-2.46-.5-3.595-1.897-4.25-7.407-4.99-10.277-1.381-2.023 2.546-1.9 8.394.236 10.839.15.17.359.29.54.435a3.136 3.136 0 001.992 1.16m49.118 2.009c.74.519.883 1.254.879 2.116-.017 3.184.019 6.367.036 9.55l.01 3.432c-.021 1.32-.047 2.638-.06 3.957-.01 1.16-.59 1.733-1.744 1.747-1.413.017-2.826.042-4.24.063l-3.147-.011-13.968.01-2.83-.011-.907.007-12.85.006-3.147-.011c-.285 0-.57.003-.855.005-4.371 0-8.743.003-13.114.004l-2.706-.01c-3.425-.017-6.85-.052-10.276-.04-.861.003-1.601-.134-2.111-.893l-.117-2.828.01-13.137c.224-.46-.353-.72-.284-1.141v-.857l-.005-1.431c.034-.464.362-.825.356-1.333-.048-4.123-.052-8.247-.07-12.371l-.008-3.433.06-8.27c.016-1.828.42-2.224 2.288-2.24 2.662-.024 5.323-.045 7.984-.068l3.714.002h13.422l3.429.005c2.988.02 5.976.059 8.965.05.93-.003 1.68.209 2.099 1.112-.017.924-.413 1.556-1.36 1.765l-13.697.029-3.152-.01c-.475 0-.95.003-1.425.005h-11.422l-.855.006-3.148-.01c-4.196-.256-4.196-.256-3.957 3.912l.01 3.432-.007 12.565-.004.853.009 3.434-.008 13.418-.003 2.572-.001.859c-.158.75-.102 1.198.914 1.188 2.218-.022 2.22.04 2.212-2.207-.002-.422-.033-.844-.051-1.266l.05-2.57c.642-3.09 2.54-5.09 5.412-6.248 1.42-.517 2.847-1.02 4.26-1.553 2.419-.915 3.118-2.778 2.03-5.361-1.554-1.792-2.64-3.785-2.65-6.234-.005-1.275-.005-2.55-.008-3.826.649-4.765 3.518-7.638 8.288-8.298 3.717-.098 6.515 1.49 8.47 4.62l.749 1.765c.412 1.912.323 3.85.29 5.784-.034 2.112-.793 3.956-2.154 5.56-.982 1.156-1.155 3.483-.364 4.952.46.645 1.19.758 1.882.946 1.258.517 2.49 1.11 3.78 1.534 2.344.77 4.16 2.13 5.32 4.328l.465 1.493.206 6.249c-.045.235.069.294.277.249l7.425-.012 3.433.01 13.417-.01c3.137.082 2.584.568 2.526-2.525l.012-13.044c.135-2.048.367-2.316 2.016-2.335"/><path d="M192.872 77.997c-.023 2.467-.116 4.937-.04 7.401.04 1.31-.397 2.24-1.324 3.122-1.785 1.703-3.482 3.498-5.215 5.255-.181.075-.318.186-.247.401.01.032.16.018.246.026l4.97-.016c.69.097 1.179.48 1.522 1.071.005.19.028.382.01.57-.305 3.383 1.39 4.505 4.476 4.465 8.32-.11 16.643-.038 24.964-.039 2.74 0 3.86-1.196 3.722-3.977l-.001-3.429c0-4.474 0-8.948.002-13.422l-.002-3.145c-.076-1.997-1.095-3.185-3.004-3.223-2.797-.056-5.597.026-8.394.05a14.553 14.553 0 00-3.421-.008 226.958 226.958 0 00-13.431.007c-.511-.028-1.023-.092-1.534-.078-2.213.064-3.33 1.205-3.362 3.431-.008.513.04 1.025.063 1.538zm9.696-7.85c4.279.1 8.559.126 12.838-.015.86.134 1.72.113 2.583.012l1.43.003c1.28.031 2.564.022 3.842.1 3.079.188 5.51 2.54 5.544 5.622a947.79 947.79 0 01-.002 21.528c-.038 3.232-2.59 5.537-5.973 5.675-1.518.062-3.038.058-4.556.083-1.144-.004-2.287-.008-3.43-.01-4.474.002-8.948.006-13.421.01l-3.43-.012c-.375-.02-.75-.056-1.125-.058-3.714-.028-5.415-1.164-6.805-4.553.164-1.208-.35-1.675-1.55-1.466-.447.078-.914.05-1.372.07-1.378-.023-2.756-.05-4.133-.062-.784-.005-1.547-.032-1.912-.902-.37-.882.177-1.43.729-1.98 2.458-2.453 4.913-4.908 7.367-7.366.395-.395.82-.728.8-1.419-.067-2.375-.065-4.752-.09-7.128.028-.759.05-1.518.084-2.276.143-3.235 2.486-5.603 5.723-5.773.948-.049 1.897-.066 2.846-.097.86.134 1.72.113 2.583.012l1.43.003zm23.379 63.257l-.248-.232c.204-.05.288.024.248.232m-52.535 0l-.265-.229c.2-.052.29.021.265.23m13.45-9.425l.277.248c-.208.045-.322-.014-.277-.248m-27.082 0l.226.24c-.209.046-.276-.042-.227-.24"/><path d="M186.293 93.775v.427c-.086-.008-.236.006-.247-.027-.071-.214.066-.326.247-.4m13.069-5.682c-.802-.038-1.477-.308-1.885-1.052-.072-1.837 1.264-1.814 2.516-1.906l3.428.005 13.422-.004 3.4.078c.696.4 1.276.879.99 1.802-.276.893-.998 1.029-1.816 1.023-1.044-.008-2.088.033-3.133.054l-3.449-.011-13.472.01m12.609 5.075c.602 1.662.177 2.347-1.579 2.361-3.665.033-7.33.006-10.995.013-1.008.001-1.907-.255-1.875-1.434.032-1.174.956-1.358 1.952-1.362 3.33-.013 6.657-.054 9.985-.084.825.234 1.762-.094 2.512.506m6.426 2.341c-.521 0-1.046.036-1.564-.008-.843-.072-1.321-.602-1.295-1.411.023-.733.487-1.26 1.265-1.298a38.484 38.484 0 013.132-.017c.843.026 1.357.56 1.367 1.356.01.799-.494 1.323-1.34 1.379-.52.034-1.043.006-1.565.006v-.007m2.845-15.852l-.692.744c-3.25.311-6.506.084-9.76.123-1.216.015-2.453.198-3.655-.177l-.646-.926c.01-1.275.718-1.735 1.917-1.727 3.7.022 7.4.013 11.1.016 1.307.001 1.952.59 1.736 1.947m-20.875-1.931c.523 0 1.05-.042 1.569.009.824.082 1.323.576 1.312 1.405-.01.83-.53 1.33-1.348 1.376-.996.055-2 .05-2.996.003-.815-.038-1.37-.522-1.392-1.343-.024-.896.542-1.385 1.428-1.45.473-.035.95-.006 1.427-.006v.006z"/></g></g></svg>