<svg xmlns="http://www.w3.org/2000/svg" width="361" height="210"><g fill="none" fill-rule="evenodd"><path fill="#15284B" d="M.365 210h360V0h-360z"/><path fill="#FFF" d="M207.332 86.548h5.678v-2.839h-5.678v2.839zm-8.516-7.096v-1.42h22.71v1.42a1.42 1.42 0 01-1.419 1.419h-19.871a1.42 1.42 0 01-1.42-1.419zm1.42-15.614h19.871a1.42 1.42 0 011.419 1.42v9.936h-22.71v-9.936c0-.783.637-1.42 1.42-1.42zm-4.258 53.936h-31.226c-3.913 0-7.097-3.184-7.097-7.097a7.093 7.093 0 016.245-7.04l.932-.112.262-.9c1.051-3.617 4.413-6.141 8.174-6.141 1.567 0 3.106.44 4.454 1.27l1.355.836.676-1.444c1.397-2.99 4.423-4.92 7.709-4.92 4.697 0 8.516 3.819 8.516 8.516 0 .391-.036.808-.112 1.312l-.215 1.405 1.404.212c3.432.525 6.02 3.537 6.02 7.006 0 3.913-3.184 7.097-7.097 7.097zm8.516 17.032h17.032v-8.516h-17.032v8.516zm0 11.356h17.032v-8.517h-17.032v8.517zm-42.581-18.452v12.774h-19.87V127.71a1.42 1.42 0 011.419-1.419h17.032a1.42 1.42 0 011.419 1.419zm2.839 17.032a1.42 1.42 0 01-1.419 1.42h-22.71a1.42 1.42 0 01-1.419-1.42v-1.419h25.548v1.419zm-25.548-51.097v-7.097h17.032v7.097c0 .783-.636 1.42-1.42 1.42h-14.193a1.42 1.42 0 01-1.419-1.42zm1.419-29.807h14.193c.784 0 1.42.637 1.42 1.42v1.419h-17.032v-1.419c0-.783.636-1.42 1.419-1.42zm-1.419 19.872h17.032V69.517h-17.032V83.71zm80.903 0a4.264 4.264 0 004.258-4.258V65.258A4.264 4.264 0 00220.107 61h-19.871a4.264 4.264 0 00-4.258 4.258v14.194a4.264 4.264 0 004.258 4.258h4.258v2.838h-2.839v2.839h7.097v14.194h-5.857a9.912 9.912 0 00-4.088-2.417c.007-.144.009-.283.009-.422 0-6.261-5.093-11.355-11.354-11.355-3.885 0-7.496 2.021-9.563 5.253a11.307 11.307 0 00-4.631-.995c-4.71 0-8.952 2.969-10.611 7.324a9.866 9.866 0 00-2.996 1.193h-10.522v-4.259h5.677a4.264 4.264 0 004.259-4.258V65.258A4.264 4.264 0 00154.816 61h-14.193a4.264 4.264 0 00-4.258 4.258v28.387a4.263 4.263 0 004.258 4.258h5.677V105h10.342a9.913 9.913 0 00-1.38 2.838h-6.123v15.614h-5.677a4.263 4.263 0 00-4.258 4.258v12.774h-2.839v4.258a4.264 4.264 0 004.258 4.258h22.71a4.264 4.264 0 004.258-4.258v-4.258h-2.839V127.71a4.263 4.263 0 00-4.258-4.258h-8.516v-12.775h2.838c0 5.478 4.459 9.936 9.936 9.936h31.226c4.995 0 9.129-3.71 9.822-8.516h5.791v11.355h-9.936V149h22.71v-25.548h-9.935v-14.194h-8.636c-.147-1-.454-1.95-.883-2.839h6.68V89.387h7.097v-2.839h-2.839V83.71h4.258z"/></g></svg>