<svg xmlns="http://www.w3.org/2000/svg" xmlns:xlink="http://www.w3.org/1999/xlink" width="360" height="210"><defs><path id="a" d="M0 77.155h86.252V0H0z"/></defs><g fill="none" fill-rule="evenodd"><path fill="#FDB515" d="M0 210h360V0H0z"/><g transform="translate(137 66)"><path fill="#FFF" d="M28.638 37.567c-.443 0-.878.18-1.19.493a1.698 1.698 0 00-.495 1.192c0 .442.181.878.494 1.19.313.313.748.494 1.191.494.443 0 .878-.181 1.191-.494.313-.312.494-.748.494-1.19 0-.444-.18-.878-.494-1.192a1.697 1.697 0 00-1.19-.493"/><mask id="b" fill="#fff"><use xlink:href="#a"/></mask><path fill="#FFF" d="M42.451 73.786h40.431v-5.728H42.451v5.728zm-39.082-8.93a5.227 5.227 0 015.222-5.221h25.27a5.228 5.228 0 015.222 5.222v8.929H3.369v-8.93zM52.56 47.04c0-1.643.674-3.243 1.85-4.392.325-.317.508-.753.508-1.206v-1.768h4.707v1.768c0 .525.238.992.613 1.3a6.177 6.177 0 011.755 4.298v17.65H52.56V47.04zm20.888 2.059c.731-.382 2.307-.973 3.841-.04a7.967 7.967 0 004.209 1.182c.499 0 .965-.044 1.384-.11V64.69h-9.434V49.098zm1.851-6.451c.325-.317.508-.752.508-1.206v-1.768h4.706v1.768c0 .525.239.992.614 1.3a6.183 6.183 0 011.745 3.958c-.843.215-2.349.387-3.829-.516-1.967-1.2-3.902-1.133-5.377-.747a6.173 6.173 0 011.633-2.79zM21.226 3.369c3.902 0 7.075 3.174 7.075 7.076 0 3.902-3.173 7.075-7.075 7.075s-7.075-3.173-7.075-7.075 3.173-7.076 7.075-7.076zm29.986 11.456H30.705c.618-1.334.966-2.816.966-4.38 0-1.563-.348-3.047-.966-4.38h20.507v8.76zm8.76 3.858l-2.695 3.94-2.696-3.94V6.065h5.391v12.618zm23.91 22.078v-2.773c0-.931-.753-1.684-1.684-1.684h-8.076c-.93 0-1.684.753-1.684 1.684v2.784a9.576 9.576 0 00-2.359 6.267v17.65h-4.717v-17.65a9.561 9.561 0 00-2.369-6.278v-2.773c0-.931-.754-1.684-1.684-1.684h-8.075c-.931 0-1.685.753-1.685 1.684v2.784a9.576 9.576 0 00-2.359 6.267v17.65h-6.742c-.091-4.66-3.907-8.424-8.587-8.424h-3.538v-10.36a1.684 1.684 0 00-3.369 0v10.36H15.498V19.173c1.646 1.083 3.614 1.716 5.728 1.716s4.082-.633 5.728-1.716v13.004a1.685 1.685 0 003.369 0V18.194h20.889v1.01c0 .34.103.672.294.952l4.086 5.972v5.038c0 .93.754 1.683 1.685 1.683.93 0 1.684-.753 1.684-1.683v-5.038l4.086-5.972a1.69 1.69 0 00.294-.951V4.38c0-.931-.754-1.686-1.685-1.686H28.638c-.128 0-.251.017-.371.043A10.403 10.403 0 0021.226 0c-5.76 0-10.445 4.685-10.445 10.445 0 1.86.492 3.608 1.348 5.122v40.698H8.591C3.854 56.265 0 60.12 0 64.857V75.47c0 .93.754 1.684 1.685 1.684h82.882c.93 0 1.685-.754 1.685-1.684V47.039a9.562 9.562 0 00-2.37-6.278z" mask="url(#b)"/><path fill="#FFF" d="M21.226 12.13c.443 0 .878-.182 1.19-.495.314-.313.495-.748.495-1.19 0-.444-.181-.879-.494-1.191a1.698 1.698 0 00-1.191-.493 1.7 1.7 0 00-1.191.493 1.698 1.698 0 00-.494 1.19c0 .443.18.877.494 1.191a1.7 1.7 0 001.19.495m36.051 0c.443 0 .877-.182 1.191-.495.314-.313.495-.748.495-1.19 0-.444-.181-.879-.495-1.191a1.697 1.697 0 00-1.19-.493c-.444 0-.879.18-1.191.493a1.698 1.698 0 00-.494 1.19c0 .443.18.877.494 1.191a1.7 1.7 0 001.19.495M24.988 65.026h-7.524a1.684 1.684 0 100 3.369h7.524a1.686 1.686 0 000-3.369m-15.47 0c-.442 0-.877.18-1.191.493a1.701 1.701 0 00-.494 1.192c0 .442.18.878.494 1.19.314.313.749.494 1.19.494a1.7 1.7 0 001.192-.494c.313-.312.494-.748.494-1.19 0-.444-.181-.878-.494-1.192a1.698 1.698 0 00-1.191-.493m23.416 0c-.443 0-.878.18-1.191.493a1.701 1.701 0 00-.494 1.192c0 .442.18.878.494 1.19.313.313.748.494 1.19.494a1.7 1.7 0 001.192-.494c.313-.312.494-.748.494-1.19 0-.444-.181-.878-.494-1.192a1.698 1.698 0 00-1.191-.493" mask="url(#b)"/></g></g></svg>