<svg xmlns="http://www.w3.org/2000/svg" xmlns:xlink="http://www.w3.org/1999/xlink" width="361" height="210"><defs><path id="a" d="M0 0h89.264v89.226H0z"/></defs><g fill="none" fill-rule="evenodd"><path fill="#15284B" d="M.365 210h360V0h-360z"/><g transform="translate(135.365 60)"><mask id="b" fill="#fff"><use xlink:href="#a"/></mask><path fill="#FFF" d="M61.941 22.926h5.651V17.33h-5.651v5.596zM18.755 40.22h17.183V20.21H18.755v20.01zm46.07-37.342v.004c-4.228 0-8.456-.004-12.684.003-1.27.002-1.777.51-1.782 1.795-.011 2.59-.011 5.18-.002 7.767.006 1.486.471 1.957 1.932 1.955 2.556-.006 5.111-.046 7.667-.043 5.735.005 11.47.032 17.205.045 1.596.003 2.036-.445 2.038-2.05.002-2.492.008-4.983-.001-7.473-.007-1.556-.454-2-1.984-2.002-4.13-.003-8.26 0-12.389 0zm-20.19 83.475h39.83c1.364 0 1.896-.45 1.899-1.666.011-4.656.01-9.31.001-13.965-.003-1.102-.518-1.635-1.615-1.67-.752-.024-1.506.041-2.259.04-25.832-.017-51.663-.035-77.496-.056-1.65 0-2.1.441-2.1 2.086 0 4.361.003 8.72.002 13.08 0 1.771.355 2.147 2.103 2.147 13.212.003 26.423.001 39.635.004zm-28.8-60.45l-2.524.001c-2.875.007-4.676 1.792-4.677 4.65-.004 11.508-.004 23.015-.005 34.521v1.038h72.007v-1.438c0-11.278.003-22.557-.002-33.834-.002-3.27-1.689-4.938-4.985-4.939-11.901-.003-23.802 0-35.703 0h-1.018v14.397h4.257c0 .678-.048 1.265.012 1.841.086.822-.225 1.048-1.042 1.046-9.9-.025-19.8-.014-29.7-.016-.277 0-.555-.048-.816-.072v-2.813h4.196V25.903zM5.81 66.188v-2.037c0-11.08.082-22.163-.04-33.243-.05-4.574 3.244-8.104 7.939-7.878.682.034 1.366.005 2.165.005V17.34h22.962v5.606h20.128v-5.632c-.282-.019-.565-.05-.848-.052-2.098-.006-4.197.017-6.294-.012-2.374-.032-4.214-1.79-4.254-4.138-.051-2.982-.05-5.966-.005-8.949.035-2.32 1.875-4.132 4.265-4.139a3328.62 3328.62 0 0125.866.003c2.527.01 4.297 1.866 4.317 4.398.023 2.82.024 5.64-.001 8.458-.023 2.562-1.854 4.355-4.441 4.374-2.291.016-4.582.003-6.956.003v5.708c.24.02.52.061.8.062 1.541.006 3.082-.01 4.622.005 4.324.047 7.373 3.036 7.408 7.368.046 5.605.012 11.211.012 16.817-.001 5.967-.002 11.933-.001 17.9 0 .322.031.644.055 1.12.464 0 .874-.005 1.285 0 2.515.04 4.378 1.702 4.415 4.186.072 4.851.075 9.704.001 14.555-.038 2.548-1.936 4.23-4.594 4.236-6.852.018-13.703.007-20.555.007H5.837c-.36 0-.721.001-1.081-.003-2.959-.031-4.719-1.78-4.726-4.72-.01-4.458.058-8.918-.029-13.375-.059-3.06 2.097-5.135 4.849-4.897.256.021.519-.02.96-.04z" mask="url(#b)"/><path fill="#FFF" d="M48.994 40.226h25.825v-8.539H48.994v8.54zm-2.918-11.362h31.546v14.257c-.331.016-.676.046-1.021.046-9.765.004-19.53-.01-29.294.028-.984.004-1.272-.233-1.257-1.246.063-4.029.026-8.06.026-12.09v-.995zm5.667 17.201v2.781H46.08c0-.748-.035-1.493.023-2.23.016-.196.316-.523.492-.528 1.692-.04 3.385-.023 5.148-.023m20.317 2.807h5.583v-2.758H72.06zm-8.646.001h5.565v-2.758h-5.565zm-8.622-.014h5.578V46.12h-5.578zm-8.596 11.494h5.552v-2.707h-5.552zm-.011-5.775c-.045-.124-.083-.183-.087-.244-.181-2.486-.181-2.486 2.283-2.486h3.364v2.73h-5.56zm-25.908-.001h5.559v-2.699h-5.559zm8.625.002h5.607v-2.668h-5.607zm25.859.012h5.59v-2.654h-5.59zm8.654-.02h5.583v-2.667h-5.583zm8.655.022h5.581v-2.66H72.07zm-60.446 5.744h5.582v-2.689h-5.582zm8.656-.018h5.588v-2.656H20.28zm8.631-.001h5.593v-2.655h-5.593zm25.847.022h5.598v-2.661h-5.598zm8.654-.02h5.589v-2.658h-5.589zm8.622.007h5.58v-2.671h-5.58zm-60.407-5.722h5.578v-2.703h-5.578zm32.987 20.227c-1.581.01-2.89 1.312-2.892 2.876-.002 1.548 1.326 2.89 2.878 2.908 1.584.019 2.97-1.371 2.94-2.947-.03-1.575-1.343-2.848-2.926-2.837m5.733 2.856c.007 3.214-2.51 5.743-5.716 5.74-3.206-.001-5.724-2.533-5.714-5.743a5.698 5.698 0 015.666-5.707 5.708 5.708 0 015.764 5.71M21.688 25.841h11.347v-2.723H21.688zm.02 5.712h11.323v-2.682H21.708zm-.001 5.747h11.327v-2.646H21.707z" mask="url(#b)"/></g></g></svg>