<svg xmlns="http://www.w3.org/2000/svg" width="361" height="210"><g fill="none" fill-rule="evenodd"><path fill="#15284B" d="M.365 210h360V0h-360z"/><g fill="#FFF"><path d="M162.257 99.458c.401 0 .793-.162 1.076-.445.282-.284.446-.677.446-1.076a1.54 1.54 0 00-.446-1.077 1.531 1.531 0 00-1.076-.445c-.402 0-.792.162-1.076.445a1.536 1.536 0 00-.445 1.077c0 .399.162.792.445 1.076.284.283.676.445 1.076.445m21.801-2.015a1.535 1.535 0 00-1.077-.446c-.4 0-.794.163-1.076.446-.283.283-.446.676-.446 1.076s.163.792.446 1.075a1.53 1.53 0 001.076.447c.402 0 .793-.163 1.077-.447.283-.283.445-.673.445-1.075 0-.4-.162-.793-.445-1.076m4.25-2.729c.401 0 .793-.162 1.076-.445.283-.284.445-.677.445-1.076 0-.4-.162-.793-.445-1.077a1.531 1.531 0 00-1.076-.445c-.4 0-.794.162-1.077.445a1.542 1.542 0 00-.445 1.077c0 .399.163.792.445 1.076.283.283.676.445 1.077.445"/><path d="M217.165 116.68c-3.47.708-6.088 3.783-6.088 7.457 0 3.675 2.618 6.75 6.087 7.458v8.219c0 .839-.683 1.52-1.52 1.52h-68.793a1.522 1.522 0 01-1.522-1.52v-8.22c3.47-.707 6.088-3.782 6.088-7.457 0-3.674-2.619-6.748-6.088-7.456v-8.22c0-.84.683-1.52 1.522-1.52h68.791c.838 0 1.521.68 1.521 1.52v8.22zm-28.32-32.203L202.19 97.82l-6.076 6.077h-6.026l4.462-4.463a1.521 1.521 0 10-2.153-2.151l-6.614 6.613h-16.357l19.42-19.42zm26.797 19.42h-4.247l7.475-7.475a4.539 4.539 0 001.338-3.228c0-1.22-.476-2.366-1.338-3.23l-6.78-6.778a1.522 1.522 0 00-2.152 0 4.535 4.535 0 01-3.228 1.337 4.536 4.536 0 01-3.228-1.337 4.536 4.536 0 01-1.338-3.23c0-1.218.476-2.365 1.338-3.227a1.521 1.521 0 000-2.152l-6.78-6.78a4.53 4.53 0 00-3.227-1.339 4.53 4.53 0 00-3.228 1.338l-25.138 25.136a1.522 1.522 0 002.153 2.152l25.135-25.135c.288-.29.67-.447 1.077-.447.406 0 .788.158 1.076.447l5.811 5.81a7.552 7.552 0 00-1.26 4.197 7.55 7.55 0 002.23 5.38 7.553 7.553 0 005.38 2.23c1.515 0 2.963-.44 4.197-1.26l5.81 5.81c.594.593.594 1.56 0 2.153l-9.628 9.628h-6.67l5-5.001a1.524 1.524 0 000-2.152l-15.499-15.496a1.523 1.523 0 00-2.153 0l-22.647 22.649h-18.269a4.57 4.57 0 00-4.565 4.565v9.588c0 .84.681 1.522 1.522 1.522a4.57 4.57 0 014.565 4.565 4.57 4.57 0 01-4.565 4.566c-.84 0-1.522.682-1.522 1.522v9.589a4.57 4.57 0 004.565 4.565h68.791a4.572 4.572 0 004.565-4.565v-9.59c0-.84-.68-1.521-1.522-1.521a4.57 4.57 0 01-4.565-4.566 4.57 4.57 0 014.565-4.565c.841 0 1.522-.682 1.522-1.522v-9.588a4.57 4.57 0 00-4.565-4.565z"/><path d="M174.79 121.56a1.53 1.53 0 00.446-1.076c0-.4-.163-.793-.446-1.075a1.533 1.533 0 00-1.076-.447c-.4 0-.793.163-1.076.447a1.53 1.53 0 00-.446 1.075c0 .401.163.794.446 1.076.283.283.676.447 1.076.447s.793-.163 1.076-.447m15.067 0a1.53 1.53 0 00.446-1.076c0-.4-.163-.793-.446-1.075-.283-.283-.676-.447-1.076-.447s-.793.163-1.076.447a1.53 1.53 0 00-.446 1.075c0 .401.163.794.446 1.076.283.283.676.447 1.076.447s.793-.163 1.076-.447m-7.533 0a1.53 1.53 0 00.446-1.076c0-.4-.163-.793-.446-1.075a1.535 1.535 0 00-1.076-.447 1.53 1.53 0 00-1.076.447 1.53 1.53 0 00-.446 1.075c0 .401.163.794.446 1.076.283.283.675.447 1.076.447.4 0 .793-.163 1.076-.447m-16.143.447c.4 0 .793-.163 1.076-.446.282-.283.446-.675.446-1.076s-.164-.793-.446-1.076c-.283-.283-.676-.446-1.076-.446s-.793.163-1.076.446a1.532 1.532 0 00-.446 1.076c0 .4.163.793.446 1.076.283.283.676.446 1.076.446m31.209-.447c.284-.282.446-.675.446-1.076a1.526 1.526 0 00-1.522-1.522c-.4 0-.793.163-1.076.447a1.53 1.53 0 00-.446 1.075c0 .401.163.794.446 1.076.283.283.676.447 1.076.447s.793-.163 1.076-.447m-31.209 7.753h30.133a1.521 1.521 0 100-3.044h-30.133a1.52 1.52 0 100 3.044m5.527 4.26c-.4 0-.793.163-1.076.446a1.532 1.532 0 00-.446 1.076c0 .4.163.792.446 1.076.283.283.676.446 1.076.446a1.53 1.53 0 001.076-.446 1.526 1.526 0 000-2.152 1.53 1.53 0 00-1.076-.446"/><path d="M204.38 111.658h-46.265c-.841 0-1.522.682-1.522 1.521v21.916c0 .84.68 1.522 1.522 1.522h6.339a1.522 1.522 0 000-3.044h-4.819v-18.87h43.223v18.87h-24.707a1.522 1.522 0 00-.001 3.044h26.23c.84 0 1.522-.683 1.522-1.522V113.18c0-.839-.681-1.52-1.522-1.52"/></g></g></svg>